<svg xmlns="http://www.w3.org/2000/svg" width="43.087" height="42.85" viewBox="0 0 43.087 42.85">
  <g id="Group_12" data-name="Group 12" transform="translate(-1262.73 -881.761)">
    <g id="Group_13" data-name="Group 13" transform="translate(1263.48 882.511)">
      <path id="Path_2" data-name="Path 2" d="M20.794,0l3.431,16.522,17.363-1.96L26.345,22.812l7.3,15.31L20.794,26.7,7.942,38.122l7.3-15.31L0,14.561l17.363,1.96Z" transform="translate(0 0)" fill="none" stroke="#f9e1b9" stroke-linecap="round" stroke-linejoin="round" stroke-width="1.5"/>
      <path id="Path_1" data-name="Path 1" d="M26.526,0l-4.9,18.754L36.658,7.934,22.464,20l18.065.77-18.065.77L36.658,33.608,21.623,22.787l4.9,18.754L20.264,23.263,14,41.541l4.9-18.754L3.87,33.608,18.065,21.541,0,20.771,18.065,20,3.87,7.934,18.9,18.754,14,0l6.262,18.278Z" transform="translate(41.565 1.072) rotate(90)" fill="none" stroke="#f9e1b9" stroke-linecap="round" stroke-linejoin="round" stroke-width="1"/>
    </g>
  </g>
</svg>
