<svg xmlns="http://www.w3.org/2000/svg" width="44" height="43" viewBox="0 0 44 43">
  <g id="Group_13" data-name="Group 13" transform="translate(-1262 -882)">
    <path id="Polygon_1" data-name="Polygon 1" d="M19.012,3.825a2,2,0,0,1,3.523,1.181l.031.543a2,2,0,0,0,2.492,1.826l.6-.154a2,2,0,0,1,2.152,3.057l-.16.236a2,2,0,0,0,.964,3l.31.115a2,2,0,0,1,0,3.752l-.31.115a2,2,0,0,0-.964,3l.16.236a2,2,0,0,1-2.152,3.057l-.6-.154a2,2,0,0,0-2.492,1.826l-.031.544a2,2,0,0,1-3.523,1.181l-.486-.574a2,2,0,0,0-3.052,0l-.486.574a2,2,0,0,1-3.523-1.181l-.031-.543a2,2,0,0,0-2.492-1.826l-.6.154a2,2,0,0,1-2.152-3.057l.16-.236a2,2,0,0,0-.964-3l-.31-.115a2,2,0,0,1,0-3.752l.31-.115a2,2,0,0,0,.964-3l-.16-.236A2,2,0,0,1,8.341,7.221l.6.154a2,2,0,0,0,2.492-1.826l.031-.544a2,2,0,0,1,3.523-1.181l.486.574a2,2,0,0,0,3.052,0Z" transform="translate(1267 888)" fill="none" stroke="#dcc194" stroke-linecap="round" stroke-linejoin="round" stroke-width="3"/>
    <path id="Polygon_2" data-name="Polygon 2" d="M26.18,0l.528,10.549L36.18,7.83,30.854,16.7,40,20.5l-9.146,3.8L36.18,33.17l-9.472-2.719L26.18,41,20,32.8,13.82,41l-.528-10.549L3.82,33.17,9.146,24.3,0,20.5l9.146-3.8L3.82,7.83l9.472,2.719L13.82,0,20,8.2Z" transform="translate(1304.5 883.5) rotate(90)" fill="none" stroke="#dcc194" stroke-linecap="round" stroke-linejoin="round" stroke-width="3"/>
  </g>
</svg>
