<svg xmlns="http://www.w3.org/2000/svg" width="34" height="31" viewBox="0 0 34 31">
  <g id="Polygon_1" data-name="Polygon 1" fill="none" stroke-linecap="round" stroke-linejoin="round">
    <path d="M19.012,3.825a2,2,0,0,1,3.523,1.181l.031.543a2,2,0,0,0,2.492,1.826l.6-.154a2,2,0,0,1,2.152,3.057l-.16.236a2,2,0,0,0,.964,3l.31.115a2,2,0,0,1,0,3.752l-.31.115a2,2,0,0,0-.964,3l.16.236a2,2,0,0,1-2.152,3.057l-.6-.154a2,2,0,0,0-2.492,1.826l-.031.544a2,2,0,0,1-3.523,1.181l-.486-.574a2,2,0,0,0-3.052,0l-.486.574a2,2,0,0,1-3.523-1.181l-.031-.543a2,2,0,0,0-2.492-1.826l-.6.154a2,2,0,0,1-2.152-3.057l.16-.236a2,2,0,0,0-.964-3l-.31-.115a2,2,0,0,1,0-3.752l.31-.115a2,2,0,0,0,.964-3l-.16-.236A2,2,0,0,1,8.341,7.221l.6.154a2,2,0,0,0,2.492-1.826l.031-.544a2,2,0,0,1,3.523-1.181l.486.574a2,2,0,0,0,3.052,0Z" stroke="none"/>
    <path d="M 13.47776031494141 3.865016937255859 C 12.8973503112793 3.865056991577148 12.25716018676758 4.279657363891602 12.21394920349121 5.047956466674805 L 12.18337059020996 5.591447830200195 C 12.10147094726563 7.047388076782227 10.89686965942383 8.187877655029297 9.440999984741211 8.187877655029297 C 9.211820602416992 8.187877655029297 8.981819152832031 8.15882682800293 8.757400512695313 8.101526260375977 L 8.155590057373047 7.947866439819336 C 8.044380187988281 7.919477462768555 7.933359146118164 7.90507698059082 7.825590133666992 7.905086517333984 C 7.375879287719727 7.905097961425781 6.959039688110352 8.163787841796875 6.737760543823242 8.580196380615234 C 6.633089065551758 8.777166366577148 6.430629730224609 9.296016693115234 6.81035041809082 9.858448028564453 L 6.969970703125 10.09486770629883 C 7.445550918579102 10.79926681518555 7.568939208984375 11.66725730895996 7.308509826660156 12.47628784179688 C 7.048080444335938 13.28532791137695 6.441509246826172 13.9183464050293 5.644329071044922 14.21303749084473 L 5.334569931030273 14.32754707336426 C 4.732509613037109 14.55011749267578 4.517999649047852 15.07912731170654 4.517999649047852 15.49999713897705 C 4.517999649047852 15.92086696624756 4.732509613037109 16.44987678527832 5.334560394287109 16.67244720458984 L 5.644329071044922 16.78695678710938 C 6.441509246826172 17.08165740966797 7.048080444335938 17.71467590332031 7.308500289916992 18.52370834350586 C 7.568929672241211 19.33273696899414 7.445539474487305 20.20072746276855 6.969959259033203 20.90514755249023 L 6.81035041809082 21.14153671264648 C 6.430570602416992 21.70405578613281 6.633020401000977 22.2229175567627 6.737699508666992 22.41987609863281 C 6.958969116210938 22.83625793457031 7.375820159912109 23.09490776062012 7.825569152832031 23.09490776062012 C 7.933380126953125 23.09490776062012 8.044410705566406 23.08051681518555 8.155580520629883 23.05212783813477 L 8.757379531860352 22.89846801757813 C 8.981800079345703 22.84116744995117 9.211799621582031 22.81211853027344 9.440990447998047 22.81211853027344 C 10.89686965942383 22.81211853027344 12.10145950317383 23.95260620117188 12.18335914611816 25.40853691101074 L 12.21393966674805 25.9520378112793 C 12.25716018676758 26.72037696838379 12.89731979370117 27.13496780395508 13.47769927978516 27.13496780395508 C 13.73354911804199 27.13496780395508 14.10396957397461 27.05774688720703 14.4156494140625 26.68989753723145 L 14.90187072753906 26.11605644226074 C 15.42539024353027 25.49816703796387 16.19013023376465 25.14379692077637 17 25.14379692077637 C 17.80986022949219 25.14379692077637 18.57458877563477 25.49816703796387 19.09812927246094 26.11605644226074 L 19.5843505859375 26.68990707397461 C 19.89603042602539 27.0577564239502 20.26644134521484 27.13497734069824 20.52230072021484 27.13497734069824 C 21.10268020629883 27.13497734069824 21.74285125732422 26.72038650512695 21.78606986999512 25.95204734802246 L 21.8166389465332 25.40854644775391 C 21.89854049682617 23.95260620117188 23.10313987731934 22.81211853027344 24.55900955200195 22.81211853027344 C 24.78818893432617 22.81211853027344 25.01819038391113 22.84116744995117 25.24259948730469 22.89846801757813 L 25.84440994262695 23.05211639404297 C 25.95560073852539 23.08050727844238 26.06662940979004 23.09489822387695 26.17443084716797 23.09489822387695 C 26.62412071228027 23.09489822387695 27.04093933105469 22.83622741699219 27.26222991943359 22.4198169708252 C 27.36690902709961 22.22284698486328 27.56937980651855 21.70398712158203 27.18963050842285 21.14152717590332 L 27.030029296875 20.90513610839844 C 26.5544605255127 20.20072746276855 26.43107032775879 19.33273696899414 26.69149971008301 18.52370834350586 C 26.95191955566406 17.71467590332031 27.55849075317383 17.08165740966797 28.35569000244141 16.78694725036621 L 28.66542053222656 16.67245674133301 C 29.26747894287109 16.44988632202148 29.48200035095215 15.92087745666504 29.48200035095215 15.50000667572021 C 29.48200035095215 15.07913684844971 29.26747894287109 14.55011749267578 28.66543960571289 14.32755661010742 L 28.35567092895508 14.21304702758789 C 27.55849075317383 13.9183464050293 26.95191955566406 13.28532791137695 26.69149971008301 12.47629737854004 C 26.43107032775879 11.66726684570313 26.5544605255127 10.79927635192871 27.030029296875 10.09487724304199 L 27.18964958190918 9.858457565307617 C 27.56948089599609 9.295867919921875 27.36695098876953 8.776937484741211 27.26223945617676 8.579936981201172 C 27.04096984863281 8.163627624511719 26.62417984008789 7.905036926269531 26.17452049255371 7.905097961425781 C 26.06660079956055 7.905107498168945 25.95553970336914 7.919496536254883 25.84440994262695 7.947877883911133 L 25.24262046813965 8.101526260375977 C 25.0181999206543 8.15882682800293 24.78820037841797 8.187877655029297 24.55900001525879 8.187877655029297 C 23.10313987731934 8.187877655029297 21.89855003356934 7.047397613525391 21.8166389465332 5.591457366943359 L 21.78606986999512 5.047956466674805 C 21.74285125732422 4.279617309570313 21.10268974304199 3.865026473999023 20.52230072021484 3.865026473999023 C 20.26644897460938 3.865026473999023 19.89603042602539 3.94224739074707 19.5843505859375 4.31010627746582 L 19.09812927246094 4.883956909179688 C 18.57458877563477 5.501827239990234 17.80985069274902 5.856197357177734 17.00000953674316 5.856197357177734 C 16.19016075134277 5.856197357177734 15.4254207611084 5.501827239990234 14.90188980102539 4.883947372436523 L 14.4156608581543 4.310087203979492 C 14.10395050048828 3.942197799682617 13.73357963562012 3.864997863769531 13.47776985168457 3.865016937255859 C 13.47776031494141 3.865016937255859 13.47776031494141 3.865016937255859 13.47776031494141 3.865016937255859 M 13.47771453857422 3.115016937255859 C 14.02131080627441 3.114980697631836 14.57293891906738 3.335529327392578 14.98788070678711 3.825246810913086 L 15.4741096496582 4.399106979370117 C 15.87352561950684 4.870502471923828 16.43676948547363 5.106199264526367 17.00001525878906 5.106199264526367 C 17.56325912475586 5.106199264526367 18.12650489807129 4.870502471923828 18.52592086791992 4.399106979370117 L 19.01213073730469 3.825267791748047 C 19.42700004577637 3.335630416870117 19.97879028320313 3.115032196044922 20.52229690551758 3.115032196044922 C 21.50934982299805 3.115032196044922 22.46942520141602 3.842184066772461 22.53488922119141 5.005836486816406 L 22.56546020507813 5.549337387084961 C 22.6264762878418 6.634006500244141 23.52895736694336 7.437875747680664 24.55899810791016 7.437875747680664 C 24.72280120849609 7.437875747680664 24.88967514038086 7.417577743530273 25.05706977844238 7.374837875366211 L 25.65888023376465 7.221187591552734 C 25.83503532409668 7.176210403442383 26.00771713256836 7.155117034912109 26.17442512512207 7.155094146728516 C 27.69374465942383 7.154895782470703 28.73836898803711 8.904895782470703 27.81124114990234 10.27812767028809 L 27.65163040161133 10.5145378112793 C 26.92597961425781 11.58934783935547 27.39934921264648 13.05990791320801 28.61573028564453 13.50957679748535 L 28.92547988891602 13.62407684326172 C 30.66751098632813 14.26806640625 30.66749954223633 16.73194694519043 28.92547988891602 17.37592697143555 L 28.61573028564453 17.49042701721191 C 27.39934921264648 17.94009780883789 26.92597961425781 19.4106559753418 27.65163040161133 20.48546600341797 L 27.81122970581055 20.72186660766602 C 28.73830604553223 22.09500503540039 27.69358444213867 23.84490203857422 26.1744327545166 23.84490203857422 C 26.00762748718262 23.84490203857422 25.83514404296875 23.82381248474121 25.65888023376465 23.77880668640137 L 25.05706977844238 23.62515640258789 C 24.88975143432617 23.58243751525879 24.72274398803711 23.5621223449707 24.55900955200195 23.5621223449707 C 23.52887725830078 23.5621223449707 22.62648010253906 24.36592102050781 22.56546020507813 25.4506664276123 L 22.53488922119141 25.99416732788086 C 22.46943283081055 27.15771675109863 21.50925445556641 27.88497734069824 20.52230072021484 27.88497734069824 C 19.97870445251465 27.88497734069824 19.42707443237305 27.66446495056152 19.01213073730469 27.17474746704102 L 18.52590942382813 26.60088729858398 C 18.12649536132813 26.12949180603027 17.56324768066406 25.89379501342773 17 25.89379501342773 C 16.43675231933594 25.89379501342773 15.87350463867188 26.12949180603027 15.47409057617188 26.60088729858398 L 14.98786926269531 27.17473793029785 C 14.57299995422363 27.66436958312988 14.02120971679688 27.88496780395508 13.47770500183105 27.88496780395508 C 12.49065208435059 27.88496780395508 11.53057670593262 27.15781593322754 11.46512031555176 25.9941577911377 L 11.43453979492188 25.4506664276123 C 11.37353134155273 24.36599731445313 10.47103309631348 23.5621223449707 9.440990447998047 23.5621223449707 C 9.277187347412109 23.5621223449707 9.110324859619141 23.58241844177246 8.942930221557617 23.62515640258789 L 8.341119766235352 23.77881622314453 C 8.16496467590332 23.82379341125488 7.992284774780273 23.84490966796875 7.82557487487793 23.84490966796875 C 6.306249618530273 23.84490966796875 5.261631011962891 22.09509658813477 6.188760757446289 20.72186660766602 L 6.348369598388672 20.48546600341797 C 7.074020385742188 19.4106559753418 6.600650787353516 17.94009780883789 5.384269714355469 17.49042701721191 L 5.07451057434082 17.37591743469238 C 3.332490921020508 16.73193740844727 3.332490921020508 14.26805686950684 5.074520111083984 13.62407684326172 L 5.384269714355469 13.50956726074219 C 6.600650787353516 13.05990791320801 7.074029922485352 11.58933639526367 6.348379135131836 10.5145378112793 L 6.188760757446289 10.27811622619629 C 5.261693954467773 8.904979705810547 6.306413650512695 7.155122756958008 7.825572967529297 7.155084609985352 C 7.992378234863281 7.155080795288086 8.16485595703125 7.176174163818359 8.341119766235352 7.22117805480957 L 8.942939758300781 7.374837875366211 C 9.110260009765625 7.417556762695313 9.277265548706055 7.437871932983398 9.440999984741211 7.437871932983398 C 10.47113227844238 7.437871932983398 11.3735294342041 6.634073257446289 11.43454933166504 5.549327850341797 L 11.46512985229492 5.005826950073242 C 11.53058052062988 3.842277526855469 12.49075889587402 3.115079879760742 13.47771453857422 3.115016937255859 Z" stroke="none" fill="#dcc194"/>
  </g>
</svg>
